<svg width="40" height="40" viewBox="0 0 40 40" fill="none" xmlns="http://www.w3.org/2000/svg">
<path d="M35 13.3333C35.8841 13.3333 36.7319 13.6845 37.357 14.3096C37.9822 14.9348 38.3334 15.7826 38.3334 16.6667V23.3333C38.3334 24.2174 37.9822 25.0652 37.357 25.6904C36.7319 26.3155 35.8841 26.6667 35 26.6667H33.23C32.824 29.889 31.2559 32.8523 28.82 35.0004C26.384 37.1485 23.2478 38.3336 20 38.3333V35C22.6522 35 25.1957 33.9464 27.0711 32.0711C28.9465 30.1957 30 27.6522 30 25V15C30 12.3478 28.9465 9.80429 27.0711 7.92893C25.1957 6.05357 22.6522 5 20 5C17.3479 5 14.8043 6.05357 12.929 7.92893C11.0536 9.80429 10 12.3478 10 15V26.6667H5.00002C4.11597 26.6667 3.26812 26.3155 2.643 25.6904C2.01788 25.0652 1.66669 24.2174 1.66669 23.3333V16.6667C1.66669 15.7826 2.01788 14.9348 2.643 14.3096C3.26812 13.6845 4.11597 13.3333 5.00002 13.3333H6.77002C7.17674 10.1115 8.74515 7.14878 11.181 5.00112C13.6168 2.85346 16.7526 1.66846 20 1.66846C23.2474 1.66846 26.3832 2.85346 28.8191 5.00112C31.2549 7.14878 32.8233 10.1115 33.23 13.3333H35ZM12.9334 26.3083L14.7 23.4817C16.2884 24.4769 18.1256 25.0032 20 25C21.8744 25.0032 23.7116 24.4769 25.3 23.4817L27.0667 26.3083C24.9489 27.6355 22.4993 28.3374 20 28.3333C17.5007 28.3374 15.0511 27.6355 12.9334 26.3083Z" fill="#1C438F"/>
</svg>
