<svg width="40" height="40" viewBox="0 0 40 40" fill="none" xmlns="http://www.w3.org/2000/svg">
<path d="M17.5 6H7.5C6.83696 6 6.20107 6.26339 5.73223 6.73223C5.26339 7.20107 5 7.83696 5 8.5V26.8333C5 27.4964 5.26339 28.1323 5.73223 28.6011C6.20107 29.0699 6.83696 29.3333 7.5 29.3333H32.5C33.163 29.3333 33.7989 29.0699 34.2678 28.6011C34.7366 28.1323 35 27.4964 35 26.8333V18.5M20 29.3333V36" stroke="#1C438F" stroke-width="3" stroke-linecap="round" stroke-linejoin="round"/>
<path d="M11.6667 37H28.3334" stroke="#1C438F" stroke-width="2" stroke-linecap="round" stroke-linejoin="round"/>
<path d="M25.8889 5.82353H32.1111M25.8889 8.88235H30.5556M33.6667 2C34.2855 2 34.879 2.2417 35.3166 2.67193C35.7542 3.10216 36 3.68568 36 4.29412V10.4118C36 11.0202 35.7542 11.6037 35.3166 12.034C34.879 12.4642 34.2855 12.7059 33.6667 12.7059H29.7778L25.8889 15V12.7059H24.3333C23.7145 12.7059 23.121 12.4642 22.6834 12.034C22.2458 11.6037 22 11.0202 22 10.4118V4.29412C22 3.68568 22.2458 3.10216 22.6834 2.67193C23.121 2.2417 23.7145 2 24.3333 2H33.6667Z" stroke="#1C438F" stroke-width="2" stroke-linecap="round" stroke-linejoin="round"/>
</svg>
