<svg width="40" height="40" viewBox="0 0 40 40" fill="none" xmlns="http://www.w3.org/2000/svg">
<path d="M36.7868 3.18427C36.7868 3.17787 36.7888 3.17187 36.7888 3.16547C36.7888 2.87574 36.6738 2.59786 36.469 2.39288C36.2643 2.1879 35.9865 2.07258 35.6968 2.07227H15.8236V2.07667L3.21238 14.6883H3.21118V36.8343H3.21238C3.21281 37.1241 3.3282 37.4023 3.53323 37.6071C3.73826 37.8119 4.01618 37.927 4.30598 37.9271H35.6976C35.9466 37.9266 36.1879 37.8411 36.3817 37.6847C36.5754 37.5283 36.7099 37.3104 36.7628 37.0671H36.7868V36.8527L36.7884 36.8351C36.7892 36.8263 36.7868 36.8235 36.7868 36.8175V3.18427ZM27.0556 6.05507H32.804V15.8939L25.5588 8.64827L27.0556 6.05507ZM15.828 15.7811C16.117 15.7802 16.394 15.6648 16.5981 15.4601C16.8022 15.2554 16.9168 14.9781 16.9168 14.6891V6.05507H24.752L13.884 24.8791L7.19398 18.1891V15.7811H15.828ZM7.19398 33.9447V21.0107L12.8512 26.6679L8.65038 33.9447H7.19398ZM10.954 33.9447L24.526 10.4371L32.8044 18.7155V33.9447H10.954Z" fill="#1C438F"/>
<path d="M24.812 18.2305C22.154 18.2305 20.0016 20.3853 20.0016 23.0413C20.0016 24.1049 20.3508 25.0849 20.9352 25.8813L24.0388 31.2569C24.0572 31.2947 24.0781 31.3309 24.1016 31.3653L24.108 31.3761L24.1096 31.3753C24.1863 31.482 24.2864 31.5698 24.4021 31.632C24.5179 31.6943 24.6464 31.7293 24.7777 31.7343C24.909 31.7394 25.0398 31.7145 25.16 31.6614C25.2803 31.6083 25.3868 31.5285 25.4716 31.4281L25.4796 31.4325L25.5096 31.3809C25.556 31.3197 25.5946 31.2529 25.6244 31.1821L28.6676 25.9109C29.2883 25.0828 29.6237 24.0758 29.6236 23.0409C29.6224 20.3853 27.47 18.2305 24.812 18.2305ZM24.7644 25.4801C24.4531 25.4802 24.1449 25.4189 23.8572 25.2999C23.5696 25.1808 23.3083 25.0063 23.0882 24.7862C22.868 24.5661 22.6934 24.3048 22.5743 24.0172C22.4552 23.7296 22.3939 23.4214 22.394 23.1101C22.3939 22.6412 22.5329 22.1829 22.7933 21.793C23.0537 21.4032 23.4239 21.0993 23.857 20.9198C24.2901 20.7403 24.7667 20.6934 25.2266 20.7848C25.6864 20.8762 26.1088 21.1019 26.4404 21.4334C26.7719 21.7649 26.9977 22.1873 27.0892 22.6471C27.1807 23.1069 27.1338 23.5835 26.9544 24.0167C26.775 24.4498 26.4712 24.8201 26.0814 25.0806C25.6915 25.341 25.2332 25.4801 24.7644 25.4801Z" fill="#1C438F"/>
</svg>
